PathFileType	4	(X/Y/Z)	D:\TRACE\spotREDO_2-26-24\spot_baseline_4-platform.trc
DataRate	CameraRate	NumFrames	NumMarkers	Units	OrigDataRate	OrigDataStartFrame	OrigNumFrames
100.00	100.00	      68	5	mm	100.00	1751	      7000
Frame#	Time	Left_Front			Right_Front			Left_Aft			Right_Aft			Post			
		X1	Y1	Z1	X2	Y2	Z2	X3	Y3	Z3	X4	Y4	Z4	X5	Y5	Z5	

1751	17.500	-696.68939	-4.11092	-575.85785	718.29419	4.93666	-490.73849	-768.19128	4.91557	643.52100	801.23981	11.44772	647.83044	4.25573	741.48438	-982.85394	
1752	17.510	-696.82452	-3.97125	-575.67261	718.24567	4.92672	-490.81116	-768.22284	4.89867	643.50128	801.23956	11.39425	647.81165	4.45339	741.46405	-982.93469	
1753	17.520	-696.82324	-3.97737	-575.68353	718.21252	4.88273	-490.78040	-768.18475	4.82363	643.51062	801.27399	11.21993	647.53015	4.45813	741.43390	-982.95105	
1754	17.530	-696.84503	-3.93006	-575.65570	718.19537	4.89721	-490.79056	-768.15210	4.84143	643.48737	801.27100	11.42706	647.86023	4.45438	741.41748	-982.93622	
1755	17.540	-696.82489	-3.96876	-575.65674	718.26398	4.86773	-490.73520	-768.11975	4.88291	643.55865	801.28497	11.38928	647.83539	4.49979	741.41943	-982.92780	
1756	17.550	-696.83533	-3.95495	-575.66986	718.27240	4.92879	-490.69513	-768.19135	4.92501	643.56128	801.22174	11.39500	647.81879	4.30958	741.45752	-982.80225	
1757	17.560	-696.80463	-4.02324	-575.64209	718.27045	4.94813	-490.73590	-768.18451	4.91496	643.53308	801.27698	11.47056	647.80322	4.30204	741.48358	-982.76129	
1758	17.570	-696.80396	-4.04149	-575.66431	718.22925	4.88813	-490.77173	-768.21014	4.89694	643.52258	801.26428	11.43519	647.81018	4.25082	741.44641	-982.70807	
1759	17.580	-696.81006	-4.03084	-575.64825	718.06445	5.03948	-490.96442	-768.18329	4.85862	643.51501	801.22852	11.40985	647.80481	4.31233	741.44739	-982.69244	
1760	17.590	-696.82813	-4.01893	-575.63812	718.17395	4.80990	-490.80737	-768.18335	4.83384	643.48383	801.17065	11.43430	647.83673	4.33114	741.47113	-982.71960	
1761	17.600	-696.86530	-3.98105	-575.60565	718.23950	4.87785	-490.76352	-768.16113	4.91116	643.50220	801.24786	11.41470	647.82495	4.37945	741.46405	-982.73315	
1762	17.610	-696.84326	-4.02884	-575.56616	718.31891	4.97860	-490.70984	-768.17932	4.93697	643.56866	801.25336	11.45474	647.85730	4.38401	741.46790	-982.78845	
1763	17.620	-696.82825	-4.02181	-575.63000	718.26044	4.92687	-490.79657	-768.19586	4.94363	643.52313	801.27673	11.39622	647.82947	4.47491	741.45093	-982.83142	
1764	17.630	-696.72717	-4.19321	-575.57660	718.21881	4.86953	-490.73807	-768.17639	4.87186	643.55023	801.21460	11.35596	647.86023	4.45535	741.42004	-982.88977	
1765	17.640	-697.03839	-3.81887	-575.57959	718.23163	4.81524	-490.73154	-768.16565	4.82107	643.51575	801.21405	11.34633	647.84100	4.48457	741.38025	-982.85773	
1766	17.650	-697.06812	-3.80821	-575.57385	718.24457	4.83033	-490.78757	-768.12964	4.88426	643.55267	801.28949	11.44197	647.83197	4.43533	741.42719	-982.89264	
1767	17.660	-697.08521	-3.76835	-575.59241	718.26599	4.95758	-490.73962	-768.21503	4.84389	643.49274	801.22833	11.52914	647.83936	4.42874	741.44153	-982.85242	
1768	17.670	-697.10376	-3.76776	-575.61029	718.06812	5.21983	-490.94983	-768.25970	4.69102	643.49353	801.20691	11.50605	647.79498	4.37412	741.44379	-982.79089	
1769	17.680	-697.11420	-3.81851	-575.59741	718.29047	4.86354	-490.72147	-768.20496	4.95036	643.51587	801.28326	11.51435	647.81812	4.37406	741.39551	-982.78107	
1770	17.690	-697.10223	-3.77277	-575.61200	718.13745	5.01841	-490.92151	-768.18970	4.81537	643.47125	801.35010	11.62529	647.80090	4.36860	741.41418	-982.73389	
1771	17.700	-697.08612	-3.82969	-575.61005	718.19678	4.80173	-490.78949	-768.15295	4.83323	643.46509	801.32898	11.55178	647.85645	4.45626	741.26361	-982.84485	
1772	17.710	-697.11371	-3.80656	-575.59723	718.26068	4.92642	-490.77100	-768.25940	4.77896	643.52673	801.31982	11.48206	647.81378	4.46430	741.32440	-982.87738	
1773	17.720	-697.13300	-3.78001	-575.59888	718.22833	4.98922	-490.72992	-768.22253	4.72473	643.52191	801.21637	11.05850	647.50293	4.35791	741.42175	-982.94617	
1774	17.730	-697.10382	-3.78367	-575.58881	718.23627	4.89798	-490.78830	-768.19299	4.79637	643.49933	801.23761	11.41538	647.81622	4.44579	741.38873	-983.00452	
1775	17.740	-697.11896	-3.78719	-575.60181	718.23053	4.89011	-490.76001	-768.17090	4.85031	643.51257	801.23260	11.49664	647.85376	4.54129	741.30585	-983.04327	
1776	17.750	-697.06934	-3.80188	-575.59009	718.08307	5.08327	-490.96048	-768.19434	4.80573	643.48352	801.23792	11.44724	647.83179	4.56837	741.28485	-983.04169	
1777	17.760	-697.07159	-3.79434	-575.60876	718.18951	4.89084	-490.81274	-768.19958	4.75626	643.52881	801.24353	11.48683	647.82526	4.45987	741.36566	-982.93628	
1778	17.770	-697.11230	-3.79185	-575.60486	718.28284	4.98222	-490.75885	-768.20923	4.72825	643.50909	801.28027	11.42360	647.84442	4.42140	741.42285	-982.90552	
1779	17.780	-697.11249	-3.78419	-575.59790	718.22723	4.90956	-490.76266	-768.21899	4.81178	643.52429	801.29590	11.42138	647.83032	4.40020	741.37305	-982.80286	
1780	17.790	-697.11298	-3.82878	-575.61768	718.12219	5.12056	-490.91916	-768.20660	4.85637	643.50195	801.29865	11.47878	647.81464	4.43408	741.36304	-982.76538	
1781	17.800	-697.11786	-3.85263	-575.56366	718.21051	4.87908	-490.79788	-768.24615	4.82550	643.47290	801.32813	11.53276	647.83075	4.42329	741.36566	-982.77283	
1782	17.810	-697.09497	-3.85555	-575.60583	718.00757	5.06973	-491.00226	-768.19257	4.81178	643.50836	801.30090	11.52038	647.84045	4.37776	741.39191	-982.76105	
1783	17.820	-697.04846	-3.83174	-575.59308	718.20764	4.90233	-490.77362	-768.25220	4.80935	643.49274	801.22870	11.47381	647.80865	4.41568	741.41534	-982.81110	
1784	17.830	-697.07074	-3.80879	-575.61047	718.28705	4.96172	-490.75351	-768.22308	4.78767	643.49042	801.29773	11.55797	647.83746	4.49276	741.40002	-982.90564	
1785	17.840	-697.07294	-3.80499	-575.60040	718.24292	4.95846	-490.75558	-768.22339	4.80804	643.48865	801.34528	11.52285	647.84473	4.44502	741.41534	-982.90094	
1786	17.850	-697.09430	-3.83782	-575.56543	718.25092	4.89513	-490.76569	-768.21124	4.80597	643.51471	801.26410	11.45338	647.85590	4.51458	741.38135	-982.98474	
1787	17.860	-697.11731	-3.86570	-575.54663	718.10284	5.08595	-490.93387	-768.24866	4.78573	643.52856	801.32098	11.49946	647.87183	4.46917	741.36725	-982.97290	
1788	17.870	-697.12744	-3.84026	-575.55212	718.22424	4.90674	-490.76569	-768.21802	4.77655	643.50079	801.26251	11.49556	647.87537	4.47017	741.33911	-982.99506	
1789	17.880	-697.13348	-3.87135	-575.56805	718.10608	5.10090	-490.96249	-768.25848	4.83047	643.50543	801.23010	11.48189	647.83447	4.47403	741.34253	-982.93335	
1790	17.890	-697.11182	-3.86436	-575.56689	718.26709	4.94480	-490.78656	-768.20819	4.83338	643.48743	801.24829	11.48998	647.84052	4.42725	741.35773	-982.86127	
1791	17.900	-697.07599	-3.86758	-575.59827	718.24841	4.92666	-490.76480	-768.20404	4.79991	643.47595	801.30756	11.51035	647.82434	4.40578	741.34509	-982.86072	
1792	17.910	-697.08105	-3.86700	-575.58246	718.19006	4.90547	-490.78052	-768.21643	4.77191	643.46619	801.32556	11.54588	647.86780	4.42016	741.34076	-982.81812	
1793	17.920	-697.09717	-3.86205	-575.55609	718.10474	5.08789	-490.95642	-768.17206	4.79031	643.48083	801.33124	11.48889	647.81628	4.45452	741.35071	-982.84064	
1794	17.930	-697.09656	-3.89822	-575.55762	718.24432	4.94938	-490.77164	-768.22668	4.76526	643.51532	801.22083	11.40059	647.83057	4.40599	741.32190	-982.85144	
1795	17.940	-697.08942	-3.83795	-575.57294	718.27313	4.92911	-490.74963	-768.22931	4.79118	643.50964	801.22229	11.43014	647.79443	4.42663	741.38629	-982.88354	
1796	17.950	-697.05469	-3.83970	-575.61163	718.06537	5.12086	-490.95877	-768.20520	4.81681	643.49420	801.27167	11.47547	647.83331	4.48217	741.37286	-982.95270	
1797	17.960	-697.08673	-3.84184	-575.58752	718.25262	4.90594	-490.79181	-768.21515	4.81957	643.49115	801.29572	11.47155	647.83307	4.52291	741.39667	-982.96112	
1798	17.970	-697.08990	-3.87279	-575.56030	718.20758	4.88826	-490.77380	-768.21350	4.81441	643.50348	801.26288	11.52375	647.83209	4.41962	741.41418	-982.91797	
1799	17.980	-697.11017	-3.86122	-575.54004	718.19800	4.85800	-490.81116	-768.24023	4.83688	643.47552	801.28088	11.47628	647.81628	4.39197	741.38586	-982.89862	
1800	17.990	-697.07007	-3.87690	-575.57251	718.20306	4.90104	-490.80942	-768.18542	4.79377	643.47949	801.27429	11.50118	647.80823	4.38622	741.40356	-982.86578	
1801	18.000	-697.05804	-3.87003	-575.58167	718.25995	4.89904	-490.78699	-768.19684	4.81542	643.48383	801.28033	11.44709	647.79230	4.38565	741.38257	-982.84760	
1802	18.010	-697.05756	-3.85769	-575.60596	718.26074	4.84618	-490.75943	-768.17834	4.96738	643.51239	801.28516	11.45076	647.84814	4.36318	741.42511	-982.79651	
1803	18.020	-697.04156	-3.88588	-575.60175	718.28809	4.93662	-490.74783	-768.09216	5.17149	643.59912	801.29669	11.60328	647.83875	4.46252	741.38129	-982.81598	
1804	18.030	-697.14087	-3.88398	-575.57007	718.14075	5.07594	-490.77228	-768.25690	4.68130	643.55304	801.18884	11.38296	647.57288	4.21509	741.46765	-982.78375	
1805	18.040	-697.13458	-3.83713	-575.55322	718.21918	4.92185	-490.75323	-768.22260	4.72481	643.48975	801.25427	11.03321	647.51434	4.16840	741.45215	-982.81738	
1806	18.050	-697.02747	-3.82697	-575.61243	718.23865	4.95815	-490.80655	-768.22449	4.82653	643.49969	801.27466	10.97651	647.40448	4.26537	741.52582	-982.77356	
1807	18.060	-697.04553	-3.83034	-575.59692	718.07996	5.10172	-490.94608	-768.18164	4.76517	643.50641	801.35315	11.43961	647.83972	4.54631	741.39380	-982.83240	
1808	18.070	-696.99915	-3.85662	-575.60822	718.08484	5.07250	-490.97144	-768.20447	4.92952	643.55927	801.38123	11.53990	647.86200	4.57575	741.24951	-982.93866	
1809	18.080	-697.08264	-3.86016	-575.60504	718.26459	4.94719	-490.74680	-768.19836	4.89960	643.52502	801.26636	11.50682	647.84656	4.46416	741.36578	-982.83240	
1810	18.090	-697.06665	-3.83720	-575.57886	718.15106	5.16980	-490.93112	-768.22687	4.76788	643.49329	801.29700	11.48854	647.83337	4.27770	741.49420	-982.86823	
1811	18.100	-697.09796	-3.80763	-575.57635	718.26746	4.99107	-490.78568	-768.22528	4.84153	643.49506	801.20111	11.45432	647.84467	4.45290	741.41498	-982.92816	
1812	18.110	-697.10583	-3.79658	-575.60809	718.19916	4.98571	-490.78192	-768.22443	4.83323	643.50781	801.18335	11.31807	647.77972	4.63880	741.36017	-982.95654	
1813	18.120	-697.06543	-3.82574	-575.62891	718.20441	4.86668	-490.78815	-768.16815	4.81849	643.47919	801.16614	11.37594	647.81110	4.55064	741.40942	-982.90521	
1814	18.130	-697.09076	-3.77634	-575.59570	718.17529	4.89877	-490.80145	-768.19684	4.83992	643.45215	801.34711	11.44695	647.83459	4.43535	741.47797	-982.81360	
1815	18.140	-697.09515	-3.78091	-575.59326	718.08728	5.18364	-490.93970	-768.18921	4.75111	643.53711	801.31116	11.48539	647.88263	4.27034	741.51941	-982.77966	
1816	18.150	-697.08685	-3.78085	-575.56921	718.24414	4.95930	-490.73801	-768.20953	4.88597	643.53119	801.26758	11.43684	647.83197	4.40846	741.47443	-982.75836	
1817	18.160	-697.09137	-3.81527	-575.56995	718.23425	4.95995	-490.77570	-768.18341	4.88049	643.48944	801.13806	11.40919	647.80212	4.42393	741.44312	-982.74713	
1818	18.170	-697.08044	-3.82987	-575.60297	718.20770	4.81232	-490.77463	-768.19141	4.80206	643.45978	801.18915	11.37850	647.78320	4.42233	741.45874	-982.75085	
